# xmcd
#
# Track frame offsets:
#	150
#	18536
#	35180
#	52004
#	71806
#	84671
#	99855
#	115259
#	129899
#	145614
#	162918
#	179662
#	196006
#	210507
#
# Disc length: 2991 seconds
#
# Revision: 1
# Processed by: cddbd v1.5.1PL0 Copyright (c) Steve Scherf et al.
# Submitted via: audiograbber 1.80
#
DISCID=c20bad0e
DTITLE=Michelle - Nenn es Liebe oder Wahnsinn
DYEAR=1900
DGENRE=
TTITLE0=Und wir wollen doch mal fliegen
TTITLE1=Weil wir wehrlos sind
TTITLE2=Dein Püppchen tanzt nicht mehr
TTITLE3=Tauch in mich hinein
TTITLE4=Hokus Pokus
TTITLE5=Schmetterlingsgefühle
TTITLE6=Zu nah an der Sonne
TTITLE7=Nenn es Liebe oder Wahnsinn
TTITLE8=Lena's Schatten
TTITLE9=Der letzte Akkord
TTITLE10=Ich würd es immer wieder tun
TTITLE11=Laß mich schwach sein
TTITLE12=Hier und heute für immer
TTITLE13=Im Feuer der Sehnsucht
EXTD=
EXTT0=
EXTT1=
EXTT2=
EXTT3=
EXTT4=
EXTT5=
EXTT6=
EXTT7=
EXTT8=
EXTT9=
EXTT10=
EXTT11=
EXTT12=
EXTT13=
PLAYORDER=
